# xmcd
#
# Track frame offsets:
#	150
#	16545
#	32651
#	49509
#	70284
#	87661
#	108150
#	130261
#	146875
#	161175
#	181499
#	200440
#	228945
#
# Disc length: 3310 seconds
#
# Revision: 1
# Processed by: cddbd v1.5.2PL0 Copyright (c) Steve Scherf et al.
# Submitted via: EZCDAudioConverter 1.0.6.1
#
DISCID=af0cec0d
DTITLE=Chubby Carrier and the Bayou Swamp Band - Bayou Road
DYEAR=2006
DGENRE=blues
TTITLE0=Bayou Road
TTITLE1=Can't Wait To Get Back To Louisiana
TTITLE2=I Don't Know
TTITLE3=Father Of Fun
TTITLE4=Bad Bad Girl
TTITLE5=We Make A Good Gumbo
TTITLE6=Get In The Pocket
TTITLE7=Soul Eyes
TTITLE8=Sauce Picante Zydeco
TTITLE9=Don't Tell Me Lies
TTITLE10=Sqeeze Box
TTITLE11=Cisco Kid
TTITLE12=Who Stole The Hot Sauce
EXTD=
EXTT0=
EXTT1=
EXTT2=
EXTT3=
EXTT4=
EXTT5=
EXTT6=
EXTT7=
EXTT8=
EXTT9=
EXTT10=
EXTT11=
EXTT12=
PLAYORDER=
